<?xml version="1.0" encoding="UTF-8"?><svg id="Layer_2" xmlns="http://www.w3.org/2000/svg" viewBox="0 0 35.84 35.84"><g id="Layer_1-2"><g><path d="M17.92,35.84C8.04,35.84,0,27.8,0,17.92S8.04,0,17.92,0s17.92,8.04,17.92,17.92-8.04,17.92-17.92,17.92Zm0-33.02C9.59,2.82,2.82,9.6,2.82,17.92s6.77,15.1,15.1,15.1,15.1-6.77,15.1-15.1S26.25,2.82,17.92,2.82Z" style="fill:#ffffff;"/><path d="M17.92,21.17c-3.81,0-6.91-3.1-6.91-6.91s3.1-6.91,6.91-6.91,6.91,3.1,6.91,6.91-3.1,6.91-6.91,6.91Zm0-11.01c-2.26,0-4.09,1.84-4.09,4.09s1.84,4.09,4.09,4.09,4.09-1.84,4.09-4.09-1.84-4.09-4.09-4.09Z" style="fill:#ffffff;"/><path d="M8.33,30.4l-2.82-.1c.25-6.7,5.7-11.95,12.41-11.95s12.14,5.23,12.41,11.92l-2.82,.11c-.21-5.16-4.42-9.21-9.59-9.21s-9.4,4.06-9.59,9.24Z" style="fill:#ffffff;"/></g></g></svg>