<svg xmlns="http://www.w3.org/2000/svg" width="17.03mm" height="11.19mm" viewBox="0 0 48.27 31.73">
  <g id="Layer_2" data-name="Layer 2">
    <g id="Layer_1-2" data-name="Layer 1">
      <g>
        <path d="M41.72,27.59H6.55A6.77,6.77,0,0,1,0,20.64v-.2L3.92,6.54C5,3.2,6.42,0,10.42,0h31.3a6.77,6.77,0,0,1,6.55,7V20.64A6.77,6.77,0,0,1,41.72,27.59ZM3,20.84a3.75,3.75,0,0,0,3.55,3.75H41.72a3.77,3.77,0,0,0,3.55-3.95V7A3.77,3.77,0,0,0,41.72,3H10.42C8.92,3,8,3.64,6.79,7.42Z" fill="#ffffff"/>
        <path d="M19.92,12.32H9.46A1.57,1.57,0,0,1,8,10.7L9.11,6.63c.34-1,.67-1.62,1.5-1.62h9.31a1.57,1.57,0,0,1,1.5,1.62V10.7A1.57,1.57,0,0,1,19.92,12.32Z" fill="#ffffff"/>
        <ellipse cx="12.57" cy="26.09" rx="5.23" ry="5.64" fill="#ffffff"/>
        <ellipse cx="35.77" cy="26.09" rx="5.23" ry="5.64" fill="#ffffff"/>
        <rect x="23.37" y="5.01" width="6.42" height="7.31" rx="0.67" fill="#ffffff"/>
        <rect x="31.62" y="5.01" width="6.42" height="7.31" rx="0.67" fill="#ffffff"/>
        <rect x="39.91" y="5.01" width="3.59" height="7.31" rx="0.67" fill="#ffffff"/>
      </g>
    </g>
  </g>
</svg>
