<svg xmlns="http://www.w3.org/2000/svg" width="14.43mm" height="13.01mm" viewBox="0 0 40.92 36.88">
  <g id="Layer_2" data-name="Layer 2">
    <g id="Layer_1-2" data-name="Layer 1">
      <g>
        <path d="M11.28,11.66a5.83,5.83,0,1,1,5.83-5.83A5.84,5.84,0,0,1,11.28,11.66Zm0-8.66a2.83,2.83,0,1,0,2.83,2.83A2.83,2.83,0,0,0,11.28,3Z" fill="#ffffff"/>
        <path d="M7,36.88A1.5,1.5,0,0,1,5.5,35.4l-.08-7.89H4.66A1.52,1.52,0,0,1,3.2,26.36L0,13.42a1.51,1.51,0,0,1,.79-1.7c3.61-1.8,9.91-3,10.18-3a1.5,1.5,0,0,1,.55,3,53.25,53.25,0,0,0-8.31,2.28L5.84,24.51H6.9A1.5,1.5,0,0,1,8.4,26l.1,9.37A1.5,1.5,0,0,1,7,36.88Z" fill="#ffffff"/>
        <path d="M15.56,36.88h0a1.5,1.5,0,0,1-1.48-1.52l.1-9.37a1.5,1.5,0,0,1,1.5-1.48h1.07l2.58-10.59A53.26,53.26,0,0,0,11,11.64a1.5,1.5,0,1,1,.55-3c.26.05,6.56,1.23,10.18,3a1.51,1.51,0,0,1,.78,1.7L19.36,26.36a1.5,1.5,0,0,1-1.45,1.15h-.76l-.09,7.89A1.5,1.5,0,0,1,15.56,36.88Z" fill="#ffffff"/>
        <path d="M30.85,11.66a5.83,5.83,0,1,1,5.83-5.83A5.83,5.83,0,0,1,30.85,11.66Zm0-8.66a2.83,2.83,0,1,0,2.83,2.83A2.83,2.83,0,0,0,30.85,3Z" fill="#ffffff"/>
        <path d="M26.57,36.88a1.49,1.49,0,0,1-1.5-1.45l-.06-2-2.67-.05a1.52,1.52,0,0,1-1.11-.52,1.49,1.49,0,0,1-.35-1.18L23.29,13.3a1.5,1.5,0,0,1,.82-1.14C27.47,10.48,30,8.9,30.06,8.88a1.5,1.5,0,0,1,1.57,2.56c-.1.06-2.35,1.44-5.47,3L24.07,30.41l2.43.05A1.49,1.49,0,0,1,28,31.91l.11,3.43a1.5,1.5,0,0,1-1.46,1.54Z" fill="#ffffff"/>
        <path d="M35.22,36.88h0a1.49,1.49,0,0,1-1.45-1.54l.1-3.43a1.49,1.49,0,0,1,1.47-1.45l2.42-.05L35.62,14.48c-3.12-1.6-5.37-3-5.47-3a1.5,1.5,0,0,1,1.57-2.56s2.6,1.6,6,3.28a1.49,1.49,0,0,1,.81,1.14L40.9,31.67a1.5,1.5,0,0,1-1.45,1.7l-2.67.05-.06,2A1.5,1.5,0,0,1,35.22,36.88Z" fill="#ffffff"/>
      </g>
    </g>
  </g>
</svg>
