<svg xmlns="http://www.w3.org/2000/svg" width="14.68mm" height="13.91mm" viewBox="0 0 41.6 39.42">
  <g id="Layer_2" data-name="Layer 2">
    <g id="Layer_1-2" data-name="Layer 1">
      <g>
        <path d="M34.85,36.88H16.69a1.5,1.5,0,0,1,0-3H33.35V17.59a1.5,1.5,0,0,1,1.5-1.5H36L20.8,3.45,5.64,16.09H6.75a1.5,1.5,0,0,1,1.5,1.5V35.38a1.5,1.5,0,0,1-3,0V19.09H1.5a1.5,1.5,0,0,1-1-2.65L19.84.35a1.48,1.48,0,0,1,1.92,0L41.07,16.44a1.5,1.5,0,0,1,.44,1.66,1.48,1.48,0,0,1-1.41,1H36.35V35.38A1.5,1.5,0,0,1,34.85,36.88Z" fill="#ffffff"/>
        <polygon points="17.87 39.42 10.87 35.38 17.87 31.34 17.87 39.42" fill="#ffffff"/>
      </g>
    </g>
  </g>
</svg>
