<svg xmlns="http://www.w3.org/2000/svg" width="12.82mm" height="12.74mm" viewBox="0 0 36.34 36.11">
  <g id="Layer_2" data-name="Layer 2">
    <g id="Layer_1-2" data-name="Layer 1">
      <g>
        <path d="M28.7,3H1.5a1.5,1.5,0,0,1,0-3H28.7a1.5,1.5,0,0,1,0,3Z" fill="#ffffff"/>
        <path d="M28.7,11.28H1.5a1.5,1.5,0,0,1,0-3H28.7a1.5,1.5,0,0,1,0,3Z" fill="#ffffff"/>
        <path d="M28.7,19.56H1.5a1.5,1.5,0,0,1,0-3H28.7a1.5,1.5,0,0,1,0,3Z" fill="#ffffff"/>
        <path d="M28.7,27.84H1.5a1.5,1.5,0,0,1,0-3H28.7a1.5,1.5,0,0,1,0,3Z" fill="#ffffff"/>
        <path d="M28.7,36.11H1.5a1.5,1.5,0,0,1,0-3H28.7a1.5,1.5,0,1,1,0,3Z" fill="#ffffff"/>
        <path d="M34.84,3a1.53,1.53,0,0,1-.3,0,1,1,0,0,1-.28-.09A1.65,1.65,0,0,1,34,2.74a1.92,1.92,0,0,1-.22-.18,1.52,1.52,0,0,1-.44-1.06,1.6,1.6,0,0,1,0-.3,2.13,2.13,0,0,1,.08-.27,1.71,1.71,0,0,1,.14-.27,1.37,1.37,0,0,1,.19-.23A1.92,1.92,0,0,1,34,.25c.09-.06.17-.09.26-.14A1.52,1.52,0,0,1,34.54,0,1.57,1.57,0,0,1,35.9.43a1.3,1.3,0,0,1,.18.23,1.15,1.15,0,0,1,.14.27,1.22,1.22,0,0,1,.09.27,1.6,1.6,0,0,1,0,.3A1.5,1.5,0,0,1,34.84,3Z" fill="#ffffff"/>
        <path d="M34.84,11.27l-.3,0a1,1,0,0,1-.28-.08L34,11a1,1,0,0,1-.22-.19,1.3,1.3,0,0,1-.19-.22,2.15,2.15,0,0,1-.14-.26c0-.09-.06-.19-.08-.28a1.5,1.5,0,0,1,0-.29,1.53,1.53,0,0,1,0-.3c0-.09.05-.19.08-.28a2.15,2.15,0,0,1,.14-.26,1.37,1.37,0,0,1,.19-.23A1.24,1.24,0,0,1,34,8.53a1.65,1.65,0,0,1,.26-.14,1.52,1.52,0,0,1,.28-.09,1.57,1.57,0,0,1,1.36.41,1.73,1.73,0,0,1,.32.49,1.43,1.43,0,0,1,0,1.15,1.3,1.3,0,0,1-.14.26,1.24,1.24,0,0,1-.18.22A1.52,1.52,0,0,1,34.84,11.27Z" fill="#ffffff"/>
        <path d="M34.84,19.55a1.53,1.53,0,0,1-.3,0,1.47,1.47,0,0,1-.28-.08A1.65,1.65,0,0,1,34,19.3l-.22-.19a1.48,1.48,0,0,1-.41-1.35,2.29,2.29,0,0,1,.08-.28,2.15,2.15,0,0,1,.14-.26,1.37,1.37,0,0,1,.19-.23,1.92,1.92,0,0,1,.22-.18,2.44,2.44,0,0,1,.54-.23A1.52,1.52,0,0,1,35.9,17a1.65,1.65,0,0,1,.41.77,1.5,1.5,0,0,1-1.47,1.79Z" fill="#ffffff"/>
        <path d="M34.84,27.83a1.53,1.53,0,0,1-1.06-.43,1.76,1.76,0,0,1-.33-.49,1.66,1.66,0,0,1-.11-.58,1.49,1.49,0,0,1,.44-1,2.09,2.09,0,0,1,.22-.2l.26-.13a1.52,1.52,0,0,1,.28-.09,1.49,1.49,0,0,1,1.36.42,1,1,0,0,1,.18.22,1.3,1.3,0,0,1,.14.26,1.8,1.8,0,0,1,.09.28,1.43,1.43,0,0,1,0,.29,1.52,1.52,0,0,1-.44,1.07A1.55,1.55,0,0,1,34.84,27.83Z" fill="#ffffff"/>
        <path d="M34.84,36.11a1.5,1.5,0,0,1-1.06-.44,1.44,1.44,0,0,1-.44-1.06,1.36,1.36,0,0,1,0-.29,2.29,2.29,0,0,1,.08-.28,2.15,2.15,0,0,1,.14-.26,1.37,1.37,0,0,1,.19-.23l.22-.19.26-.14a2.86,2.86,0,0,1,.28-.07,1.48,1.48,0,0,1,1.36.4,1.65,1.65,0,0,1,.41.77,1.54,1.54,0,0,1-.41,1.35A1.52,1.52,0,0,1,34.84,36.11Z" fill="#ffffff"/>
      </g>
    </g>
  </g>
</svg>
