<svg xmlns="http://www.w3.org/2000/svg" width="12.64mm" height="12.64mm" viewBox="0 0 35.84 35.84">
  <g id="Layer_2" data-name="Layer 2">
    <g id="Layer_1-2" data-name="Layer 1">
      <g>
        <path d="M17.92,35.84A17.92,17.92,0,1,1,35.84,17.92,17.94,17.94,0,0,1,17.92,35.84Zm0-33A15.1,15.1,0,1,0,33,17.92,15.12,15.12,0,0,0,17.92,2.82Z" fill="#ffffff"/>
        <path d="M17.92,21.17a6.92,6.92,0,1,1,6.91-6.92A6.93,6.93,0,0,1,17.92,21.17Zm0-11A4.09,4.09,0,1,0,22,14.25,4.09,4.09,0,0,0,17.92,10.16Z" fill="#ffffff"/>
        <path d="M8.33,30.4l-2.82-.1a12.42,12.42,0,0,1,24.82,0l-2.82.11a9.6,9.6,0,0,0-19.18,0Z" fill="#ffffff"/>
      </g>
    </g>
  </g>
</svg>
