<svg xmlns="http://www.w3.org/2000/svg" width="8.97mm" height="13.1mm" viewBox="0 0 25.43 37.14">
  <g id="Layer_2" data-name="Layer 2">
    <g id="Layer_1-2" data-name="Layer 1">
      <g>
        <path d="M7.7,31.91a1.5,1.5,0,0,1-1.5-1.5V28.94a6.52,6.52,0,0,1,6.51-6.51A9.72,9.72,0,1,0,3,12.71a1.5,1.5,0,0,1-3,0A12.72,12.72,0,1,1,12.71,25.43,3.51,3.51,0,0,0,9.2,28.94v1.47A1.5,1.5,0,0,1,7.7,31.91Z" fill="#DC23B1"/>
        <path d="M7.8,37.14a1.5,1.5,0,0,1-1.06-.44,1.47,1.47,0,0,1-.44-1.06,1.52,1.52,0,0,1,.44-1.06,1.49,1.49,0,0,1,1.35-.41l.28.08.26.14a2.11,2.11,0,0,1,.23.19,1.5,1.5,0,0,1,0,2.12,1.63,1.63,0,0,1-.49.33A1.56,1.56,0,0,1,7.8,37.14Z" fill="#DC23B1"/>
      </g>
    </g>
  </g>
</svg>
